<svg width="600" height="133" viewBox="0 0 600 133" fill="none" xmlns="http://www.w3.org/2000/svg">
<path d="M20.784 44.864C17.648 44.864 14.944 44.304 12.672 43.184C10.4 42.064 8.528 40.592 7.056 38.768C5.584 36.944 4.48 34.992 3.744 32.912C3.04 30.832 2.688 28.832 2.688 26.912V25.856C2.688 23.776 3.056 21.68 3.792 19.568C4.528 17.456 5.648 15.536 7.152 13.808C8.656 12.048 10.528 10.64 12.768 9.584C15.04 8.528 17.712 8 20.784 8C23.856 8 26.512 8.528 28.752 9.584C31.024 10.64 32.912 12.048 34.416 13.808C35.92 15.536 37.04 17.456 37.776 19.568C38.512 21.68 38.88 23.776 38.88 25.856V26.912C38.88 28.832 38.512 30.832 37.776 32.912C37.072 34.992 35.984 36.944 34.512 38.768C33.04 40.592 31.168 42.064 28.896 43.184C26.624 44.304 23.92 44.864 20.784 44.864ZM20.784 40.544C22.832 40.544 24.672 40.16 26.304 39.392C27.968 38.624 29.376 37.584 30.528 36.272C31.68 34.928 32.56 33.424 33.168 31.76C33.776 30.064 34.08 28.288 34.08 26.432C34.08 24.48 33.776 22.656 33.168 20.96C32.56 19.264 31.68 17.776 30.528 16.496C29.376 15.184 27.968 14.16 26.304 13.424C24.672 12.688 22.832 12.32 20.784 12.32C18.736 12.32 16.88 12.688 15.216 13.424C13.584 14.16 12.192 15.184 11.04 16.496C9.888 17.776 9.008 19.264 8.4 20.96C7.792 22.656 7.488 24.48 7.488 26.432C7.488 28.288 7.792 30.064 8.4 31.76C9.008 33.424 9.888 34.928 11.04 36.272C12.192 37.584 13.584 38.624 15.216 39.392C16.88 40.16 18.736 40.544 20.784 40.544ZM45.2753 44V8.96H49.8833V44H45.2753ZM41.7233 12.608V8.96H49.8833V12.608H41.7233ZM73.2656 44V36.32H72.4976V27.44C72.4976 25.68 72.0336 24.352 71.1056 23.456C70.2096 22.56 68.8816 22.112 67.1216 22.112C66.1296 22.112 65.1056 22.128 64.0496 22.16C62.9936 22.192 61.9856 22.224 61.0256 22.256C60.0656 22.288 59.2336 22.336 58.5296 22.4V18.368C59.2336 18.304 59.9696 18.256 60.7376 18.224C61.5376 18.16 62.3536 18.128 63.1856 18.128C64.0176 18.096 64.8176 18.08 65.5856 18.08C68.2096 18.08 70.3536 18.4 72.0176 19.04C73.6816 19.648 74.9136 20.656 75.7136 22.064C76.5136 23.472 76.9136 25.376 76.9136 27.776V44H73.2656ZM64.8656 44.672C62.9456 44.672 61.2816 44.352 59.8736 43.712C58.4976 43.04 57.4256 42.08 56.6576 40.832C55.9216 39.584 55.5536 38.08 55.5536 36.32C55.5536 34.496 55.9536 32.976 56.7536 31.76C57.5856 30.544 58.7856 29.632 60.3536 29.024C61.9216 28.384 63.8096 28.064 66.0176 28.064H72.9776V31.52H65.8256C63.9696 31.52 62.5456 31.968 61.5536 32.864C60.5616 33.76 60.0656 34.912 60.0656 36.32C60.0656 37.728 60.5616 38.864 61.5536 39.728C62.5456 40.592 63.9696 41.024 65.8256 41.024C66.9136 41.024 67.9536 40.832 68.9456 40.448C69.9376 40.032 70.7536 39.36 71.3936 38.432C72.0656 37.472 72.4336 36.16 72.4976 34.496L73.7456 36.32C73.5856 38.144 73.1376 39.68 72.4016 40.928C71.6976 42.144 70.7056 43.072 69.4256 43.712C68.1776 44.352 66.6576 44.672 64.8656 44.672ZM64.3856 14.624L68.6096 5.12H73.4576L68.1296 14.624H64.3856ZM84.939 51.536L81.243 50.144L85.707 37.76L89.499 39.2L84.939 51.536ZM114.375 44.768C111.015 44.768 108.407 44.048 106.551 42.608C104.727 41.168 103.783 39.2 103.719 36.704H108.039C108.103 37.696 108.599 38.64 109.527 39.536C110.487 40.4 112.103 40.832 114.375 40.832C116.423 40.832 117.991 40.432 119.079 39.632C120.167 38.8 120.711 37.792 120.711 36.608C120.711 35.552 120.311 34.736 119.511 34.16C118.711 33.552 117.415 33.152 115.623 32.96L112.839 32.672C110.407 32.416 108.423 31.696 106.887 30.512C105.351 29.296 104.583 27.6 104.583 25.424C104.583 23.792 104.999 22.4 105.831 21.248C106.663 20.064 107.815 19.168 109.287 18.56C110.759 17.92 112.455 17.6 114.375 17.6C117.255 17.6 119.591 18.24 121.383 19.52C123.175 20.8 124.103 22.704 124.167 25.232H119.847C119.815 24.208 119.335 23.344 118.407 22.64C117.511 21.904 116.167 21.536 114.375 21.536C112.583 21.536 111.223 21.904 110.295 22.64C109.367 23.376 108.903 24.304 108.903 25.424C108.903 26.384 109.223 27.152 109.863 27.728C110.535 28.304 111.623 28.672 113.127 28.832L115.911 29.12C118.663 29.408 120.871 30.176 122.535 31.424C124.199 32.64 125.031 34.368 125.031 36.608C125.031 38.208 124.567 39.632 123.639 40.88C122.743 42.096 121.495 43.056 119.895 43.76C118.295 44.432 116.455 44.768 114.375 44.768ZM142.558 44.864C140.318 44.864 138.35 44.48 136.654 43.712C134.958 42.944 133.518 41.936 132.334 40.688C131.182 39.408 130.302 37.984 129.694 36.416C129.118 34.848 128.83 33.248 128.83 31.616V30.752C128.83 29.12 129.134 27.52 129.742 25.952C130.35 24.352 131.246 22.928 132.43 21.68C133.614 20.4 135.054 19.392 136.75 18.656C138.446 17.888 140.382 17.504 142.558 17.504C144.734 17.504 146.67 17.888 148.366 18.656C150.062 19.392 151.502 20.4 152.686 21.68C153.87 22.928 154.766 24.352 155.374 25.952C155.982 27.52 156.286 29.12 156.286 30.752V31.616C156.286 33.248 155.982 34.848 155.374 36.416C154.798 37.984 153.918 39.408 152.734 40.688C151.582 41.936 150.158 42.944 148.462 43.712C146.766 44.48 144.798 44.864 142.558 44.864ZM142.558 40.736C144.478 40.736 146.11 40.32 147.454 39.488C148.83 38.624 149.87 37.472 150.574 36.032C151.31 34.592 151.678 32.976 151.678 31.184C151.678 29.36 151.31 27.728 150.574 26.288C149.838 24.848 148.782 23.712 147.406 22.88C146.062 22.048 144.446 21.632 142.558 21.632C140.702 21.632 139.086 22.048 137.71 22.88C136.334 23.712 135.278 24.848 134.542 26.288C133.806 27.728 133.438 29.36 133.438 31.184C133.438 32.976 133.79 34.592 134.494 36.032C135.23 37.472 136.27 38.624 137.614 39.488C138.99 40.32 140.638 40.736 142.558 40.736ZM171.107 44.768C168.067 44.768 165.731 43.776 164.099 41.792C162.467 39.808 161.651 36.944 161.651 33.2V18.32H166.259V34.112C166.259 36.128 166.803 37.712 167.891 38.864C168.979 39.984 170.451 40.544 172.307 40.544C174.227 40.544 175.795 39.936 177.011 38.72C178.227 37.472 178.835 35.776 178.835 33.632V18.32H183.443V44H179.795V33.008H180.371C180.371 35.536 180.035 37.68 179.363 39.44C178.691 41.168 177.683 42.496 176.339 43.424C175.027 44.32 173.347 44.768 171.299 44.768H171.107Z" fill="black"/>
<path d="M204.384 44L215.616 8.96H229.92L241.536 44H232.32L223.296 15.2L225.84 16.16H219.504L222.096 15.2L213.312 44H204.384ZM213.552 35.888L216.24 28.592H229.536L232.224 35.888H213.552ZM244.13 44V17.504H251.042V28.88H250.658C250.658 26.128 251.01 23.856 251.714 22.064C252.418 20.24 253.458 18.88 254.834 17.984C256.242 17.088 257.938 16.64 259.922 16.64H260.306C263.314 16.64 265.634 17.648 267.266 19.664C268.93 21.648 269.762 24.704 269.762 28.832V44H261.026V28.592C261.026 27.376 260.658 26.384 259.922 25.616C259.218 24.816 258.242 24.416 256.994 24.416C255.746 24.416 254.738 24.816 253.97 25.616C253.234 26.384 252.866 27.408 252.866 28.688V44H244.13ZM285.566 44.864C283.71 44.864 282.014 44.528 280.478 43.856C278.974 43.184 277.662 42.256 276.542 41.072C275.454 39.856 274.606 38.432 273.998 36.8C273.422 35.168 273.134 33.392 273.134 31.472V30.32C273.134 28.4 273.406 26.624 273.95 24.992C274.526 23.328 275.342 21.888 276.398 20.672C277.454 19.424 278.734 18.464 280.238 17.792C281.742 17.088 283.422 16.736 285.278 16.736C287.422 16.736 289.246 17.216 290.75 18.176C292.286 19.104 293.454 20.464 294.254 22.256C295.086 24.048 295.534 26.224 295.598 28.784L293.582 27.296V8.96H302.318V44H295.406V33.248H296.366C296.302 35.616 295.822 37.68 294.926 39.44C294.03 41.168 292.782 42.512 291.182 43.472C289.614 44.4 287.742 44.864 285.566 44.864ZM287.918 37.664C288.974 37.664 289.934 37.424 290.798 36.944C291.694 36.464 292.414 35.76 292.958 34.832C293.502 33.904 293.774 32.784 293.774 31.472V29.84C293.774 28.56 293.486 27.488 292.91 26.624C292.366 25.76 291.646 25.104 290.75 24.656C289.886 24.176 288.942 23.936 287.918 23.936C286.766 23.936 285.726 24.24 284.798 24.848C283.902 25.424 283.182 26.24 282.638 27.296C282.126 28.32 281.87 29.52 281.87 30.896C281.87 32.272 282.126 33.472 282.638 34.496C283.182 35.488 283.902 36.272 284.798 36.848C285.726 37.392 286.766 37.664 287.918 37.664ZM320.126 44.96C317.886 44.96 315.902 44.576 314.174 43.808C312.446 43.04 310.99 42 309.806 40.688C308.622 39.376 307.71 37.904 307.07 36.272C306.462 34.64 306.158 32.96 306.158 31.232V30.272C306.158 28.48 306.462 26.768 307.07 25.136C307.71 23.472 308.606 22 309.758 20.72C310.942 19.44 312.382 18.432 314.078 17.696C315.774 16.928 317.694 16.544 319.838 16.544C322.686 16.544 325.102 17.184 327.086 18.464C329.07 19.744 330.59 21.44 331.646 23.552C332.702 25.632 333.23 27.904 333.23 30.368V33.152H309.806V28.448H328.19L325.166 30.56C325.166 29.056 324.958 27.792 324.542 26.768C324.158 25.712 323.566 24.912 322.766 24.368C321.998 23.824 321.022 23.552 319.838 23.552C318.686 23.552 317.678 23.824 316.814 24.368C315.982 24.88 315.342 25.68 314.894 26.768C314.446 27.824 314.222 29.168 314.222 30.8C314.222 32.272 314.43 33.552 314.846 34.64C315.262 35.696 315.902 36.512 316.766 37.088C317.63 37.664 318.75 37.952 320.126 37.952C321.342 37.952 322.334 37.744 323.102 37.328C323.902 36.912 324.462 36.352 324.782 35.648H332.75C332.366 37.44 331.598 39.04 330.446 40.448C329.326 41.856 327.886 42.96 326.126 43.76C324.398 44.56 322.398 44.96 320.126 44.96ZM336.875 44V17.504H343.787V29.024H343.691C343.691 25.312 344.459 22.4 345.995 20.288C347.563 18.176 349.803 17.12 352.715 17.12H353.771V24.608H351.755C349.803 24.608 348.283 25.136 347.195 26.192C346.139 27.248 345.611 28.768 345.611 30.752V44H336.875ZM366.771 44.864C362.931 44.864 359.907 44.08 357.699 42.512C355.491 40.912 354.307 38.672 354.147 35.792H361.827C361.955 36.592 362.451 37.28 363.315 37.856C364.179 38.432 365.395 38.72 366.963 38.72C368.083 38.72 369.043 38.56 369.843 38.24C370.675 37.888 371.091 37.328 371.091 36.56C371.091 35.888 370.771 35.344 370.131 34.928C369.491 34.48 368.323 34.176 366.627 34.016L364.803 33.824C361.411 33.472 358.915 32.544 357.315 31.04C355.715 29.536 354.915 27.648 354.915 25.376C354.915 23.424 355.395 21.824 356.355 20.576C357.315 19.296 358.643 18.336 360.339 17.696C362.035 17.056 363.971 16.736 366.147 16.736C369.699 16.736 372.563 17.52 374.739 19.088C376.915 20.624 378.067 22.848 378.195 25.76H370.515C370.387 24.96 369.955 24.288 369.219 23.744C368.483 23.168 367.427 22.88 366.051 22.88C365.059 22.88 364.243 23.056 363.603 23.408C362.995 23.76 362.691 24.256 362.691 24.896C362.691 25.568 362.979 26.064 363.555 26.384C364.163 26.704 365.123 26.944 366.435 27.104L368.259 27.296C371.651 27.648 374.259 28.592 376.083 30.128C377.939 31.632 378.867 33.616 378.867 36.08C378.867 37.904 378.371 39.472 377.379 40.784C376.419 42.096 375.027 43.104 373.203 43.808C371.411 44.512 369.267 44.864 366.771 44.864ZM395.452 44.96C393.116 44.96 391.036 44.608 389.212 43.904C387.388 43.2 385.836 42.224 384.556 40.976C383.308 39.728 382.348 38.288 381.676 36.656C381.036 35.024 380.716 33.28 380.716 31.424V30.272C380.716 28.352 381.052 26.56 381.724 24.896C382.428 23.232 383.42 21.776 384.7 20.528C385.98 19.28 387.532 18.304 389.356 17.6C391.18 16.896 393.212 16.544 395.452 16.544C397.724 16.544 399.756 16.896 401.548 17.6C403.372 18.304 404.924 19.28 406.204 20.528C407.484 21.776 408.46 23.232 409.132 24.896C409.836 26.56 410.188 28.352 410.188 30.272V31.424C410.188 33.28 409.852 35.024 409.18 36.656C408.54 38.288 407.58 39.728 406.3 40.976C405.052 42.224 403.516 43.2 401.692 43.904C399.868 44.608 397.788 44.96 395.452 44.96ZM395.452 37.664C396.796 37.664 397.9 37.376 398.764 36.8C399.66 36.224 400.332 35.424 400.78 34.4C401.228 33.344 401.452 32.16 401.452 30.848C401.452 29.472 401.212 28.272 400.732 27.248C400.284 26.192 399.612 25.36 398.716 24.752C397.82 24.144 396.732 23.84 395.452 23.84C394.172 23.84 393.084 24.144 392.188 24.752C391.292 25.36 390.604 26.192 390.124 27.248C389.676 28.272 389.452 29.472 389.452 30.848C389.452 32.16 389.676 33.344 390.124 34.4C390.572 35.424 391.244 36.224 392.14 36.8C393.036 37.376 394.14 37.664 395.452 37.664ZM414.01 44V17.504H420.922V28.88H420.538C420.538 26.128 420.89 23.856 421.594 22.064C422.298 20.24 423.338 18.88 424.714 17.984C426.122 17.088 427.818 16.64 429.802 16.64H430.187C433.194 16.64 435.514 17.648 437.147 19.664C438.811 21.648 439.642 24.704 439.642 28.832V44H430.906V28.592C430.906 27.376 430.538 26.384 429.802 25.616C429.098 24.816 428.122 24.416 426.874 24.416C425.626 24.416 424.618 24.816 423.851 25.616C423.114 26.384 422.746 27.408 422.746 28.688V44H414.01ZM443.303 44V34.496H452.711V44H443.303Z" fill="black"/>
<path d="M3.552 120V84.96H12.48V120H3.552ZM11.52 106.416V99.12H24.528V106.416H11.52ZM11.52 92.256V84.96H25.056V92.256H11.52ZM28.7861 120V93.504H35.6981V105.024H35.6021C35.6021 101.312 36.3701 98.4 37.9061 96.288C39.4741 94.176 41.7141 93.12 44.6261 93.12H45.6821V100.608H43.6661C41.7141 100.608 40.1941 101.136 39.1061 102.192C38.0501 103.248 37.5221 104.768 37.5221 106.752V120H28.7861ZM61.2761 120.96C58.9401 120.96 56.8601 120.608 55.0361 119.904C53.2121 119.2 51.6601 118.224 50.3801 116.976C49.1321 115.728 48.1721 114.288 47.5001 112.656C46.8601 111.024 46.5401 109.28 46.5401 107.424V106.272C46.5401 104.352 46.8761 102.56 47.5481 100.896C48.2521 99.232 49.2441 97.776 50.5241 96.528C51.8041 95.28 53.3561 94.304 55.1801 93.6C57.0041 92.896 59.0361 92.544 61.2761 92.544C63.5481 92.544 65.5801 92.896 67.3721 93.6C69.1961 94.304 70.7481 95.28 72.0281 96.528C73.3081 97.776 74.2841 99.232 74.9561 100.896C75.6601 102.56 76.0121 104.352 76.0121 106.272V107.424C76.0121 109.28 75.6761 111.024 75.0041 112.656C74.3641 114.288 73.4041 115.728 72.1241 116.976C70.8761 118.224 69.3401 119.2 67.5161 119.904C65.6921 120.608 63.6121 120.96 61.2761 120.96ZM61.2761 113.664C62.6201 113.664 63.7241 113.376 64.5881 112.8C65.4841 112.224 66.1561 111.424 66.6041 110.4C67.0521 109.344 67.2761 108.16 67.2761 106.848C67.2761 105.472 67.0361 104.272 66.5561 103.248C66.1081 102.192 65.4361 101.36 64.5401 100.752C63.6441 100.144 62.5561 99.84 61.2761 99.84C59.9961 99.84 58.9081 100.144 58.0121 100.752C57.1161 101.36 56.4281 102.192 55.9481 103.248C55.5001 104.272 55.2761 105.472 55.2761 106.848C55.2761 108.16 55.5001 109.344 55.9481 110.4C56.3961 111.424 57.0681 112.224 57.9641 112.8C58.8601 113.376 59.9641 113.664 61.2761 113.664ZM79.8349 120V93.504H86.7469V104.88H86.3629C86.3629 102.128 86.7149 99.856 87.4189 98.064C88.1229 96.24 89.1629 94.88 90.5389 93.984C91.9469 93.088 93.6429 92.64 95.6269 92.64H96.0109C99.0189 92.64 101.339 93.648 102.971 95.664C104.635 97.648 105.467 100.704 105.467 104.832V120H96.7309V104.592C96.7309 103.376 96.3629 102.384 95.6269 101.616C94.9229 100.816 93.9469 100.416 92.6989 100.416C91.4509 100.416 90.4429 100.816 89.6749 101.616C88.9389 102.384 88.5709 103.408 88.5709 104.688V120H79.8349ZM122.999 120.384C120.119 120.384 117.815 120.032 116.087 119.328C114.391 118.624 113.159 117.456 112.391 115.824C111.623 114.192 111.239 111.984 111.239 109.2L111.287 86.592H119.351L119.303 109.44C119.303 110.624 119.607 111.536 120.215 112.176C120.855 112.784 121.767 113.088 122.951 113.088H126.599V120.384H122.999ZM107.399 99.84V93.504H126.599V99.84H107.399ZM142.659 120.96C140.419 120.96 138.435 120.576 136.707 119.808C134.979 119.04 133.523 118 132.339 116.688C131.155 115.376 130.243 113.904 129.603 112.272C128.995 110.64 128.691 108.96 128.691 107.232V106.272C128.691 104.48 128.995 102.768 129.603 101.136C130.243 99.472 131.139 98 132.291 96.72C133.475 95.44 134.915 94.432 136.611 93.696C138.307 92.928 140.227 92.544 142.371 92.544C145.219 92.544 147.635 93.184 149.619 94.464C151.603 95.744 153.123 97.44 154.179 99.552C155.235 101.632 155.763 103.904 155.763 106.368V109.152H132.339V104.448H150.723L147.699 106.56C147.699 105.056 147.491 103.792 147.075 102.768C146.691 101.712 146.099 100.912 145.299 100.368C144.531 99.824 143.555 99.552 142.371 99.552C141.219 99.552 140.211 99.824 139.347 100.368C138.515 100.88 137.875 101.68 137.427 102.768C136.979 103.824 136.755 105.168 136.755 106.8C136.755 108.272 136.963 109.552 137.379 110.64C137.795 111.696 138.435 112.512 139.299 113.088C140.163 113.664 141.283 113.952 142.659 113.952C143.875 113.952 144.867 113.744 145.635 113.328C146.435 112.912 146.995 112.352 147.315 111.648H155.283C154.899 113.44 154.131 115.04 152.979 116.448C151.859 117.856 150.419 118.96 148.659 119.76C146.931 120.56 144.931 120.96 142.659 120.96ZM159.408 120V93.504H166.32V104.88H165.936C165.936 102.128 166.288 99.856 166.992 98.064C167.696 96.24 168.736 94.88 170.112 93.984C171.52 93.088 173.216 92.64 175.2 92.64H175.584C178.592 92.64 180.912 93.648 182.544 95.664C184.208 97.648 185.04 100.704 185.04 104.832V120H176.304V104.592C176.304 103.376 175.936 102.384 175.2 101.616C174.496 100.816 173.52 100.416 172.272 100.416C171.024 100.416 170.016 100.816 169.248 101.616C168.512 102.384 168.144 103.408 168.144 104.688V120H159.408ZM200.844 120.864C198.988 120.864 197.292 120.528 195.756 119.856C194.252 119.184 192.94 118.256 191.82 117.072C190.732 115.856 189.884 114.432 189.276 112.8C188.7 111.168 188.412 109.392 188.412 107.472V106.32C188.412 104.4 188.684 102.624 189.228 100.992C189.804 99.328 190.62 97.888 191.676 96.672C192.732 95.424 194.012 94.464 195.516 93.792C197.02 93.088 198.7 92.736 200.556 92.736C202.7 92.736 204.524 93.216 206.028 94.176C207.564 95.104 208.732 96.464 209.532 98.256C210.364 100.048 210.812 102.224 210.876 104.784L208.86 103.296V84.96H217.596V120H210.684V109.248H211.644C211.58 111.616 211.1 113.68 210.204 115.44C209.308 117.168 208.06 118.512 206.46 119.472C204.892 120.4 203.02 120.864 200.844 120.864ZM203.196 113.664C204.252 113.664 205.212 113.424 206.076 112.944C206.972 112.464 207.692 111.76 208.236 110.832C208.78 109.904 209.052 108.784 209.052 107.472V105.84C209.052 104.56 208.764 103.488 208.188 102.624C207.644 101.76 206.924 101.104 206.028 100.656C205.164 100.176 204.22 99.936 203.196 99.936C202.044 99.936 201.004 100.24 200.076 100.848C199.18 101.424 198.46 102.24 197.916 103.296C197.404 104.32 197.148 105.52 197.148 106.896C197.148 108.272 197.404 109.472 197.916 110.496C198.46 111.488 199.18 112.272 200.076 112.848C201.004 113.392 202.044 113.664 203.196 113.664Z" fill="black"/>
<mask id="path-4-outside-1_181_1057" maskUnits="userSpaceOnUse" x="237" y="81" width="254" height="52" fill="black">
<rect fill="white" x="237" y="81" width="254" height="52"/>
<path d="M248.52 120.192V111.84H254.28C255.784 111.84 257.128 111.632 258.312 111.216C259.528 110.768 260.552 110.144 261.384 109.344C262.216 108.512 262.856 107.52 263.304 106.368C263.752 105.184 263.976 103.856 263.976 102.384C263.976 100.848 263.752 99.504 263.304 98.352C262.856 97.168 262.216 96.192 261.384 95.424C260.552 94.624 259.528 94.032 258.312 93.648C257.128 93.232 255.784 93.024 254.28 93.024H248.52V84.672H253.896C257.064 84.672 259.832 85.12 262.2 86.016C264.6 86.912 266.6 88.16 268.2 89.76C269.8 91.328 271 93.152 271.8 95.232C272.6 97.312 273 99.52 273 101.856V102.912C273 105.056 272.6 107.168 271.8 109.248C271 111.296 269.8 113.152 268.2 114.816C266.6 116.448 264.6 117.76 262.2 118.752C259.832 119.712 257.064 120.192 253.896 120.192H248.52ZM240.552 120.192V84.672H249.48V120.192H240.552ZM288.999 120.96C286.759 120.96 284.775 120.576 283.047 119.808C281.319 119.04 279.863 118 278.679 116.688C277.495 115.376 276.583 113.904 275.943 112.272C275.335 110.64 275.031 108.96 275.031 107.232V106.272C275.031 104.48 275.335 102.768 275.943 101.136C276.583 99.472 277.479 98 278.631 96.72C279.815 95.44 281.255 94.432 282.951 93.696C284.647 92.928 286.567 92.544 288.711 92.544C291.559 92.544 293.975 93.184 295.959 94.464C297.943 95.744 299.463 97.44 300.519 99.552C301.575 101.632 302.103 103.904 302.103 106.368V109.152H278.679V104.448H297.063L294.039 106.56C294.039 105.056 293.831 103.792 293.415 102.768C293.031 101.712 292.439 100.912 291.639 100.368C290.871 99.824 289.895 99.552 288.711 99.552C287.559 99.552 286.551 99.824 285.687 100.368C284.855 100.88 284.215 101.68 283.767 102.768C283.319 103.824 283.095 105.168 283.095 106.8C283.095 108.272 283.303 109.552 283.719 110.64C284.135 111.696 284.775 112.512 285.639 113.088C286.503 113.664 287.623 113.952 288.999 113.952C290.215 113.952 291.207 113.744 291.975 113.328C292.775 112.912 293.335 112.352 293.655 111.648H301.623C301.239 113.44 300.471 115.04 299.319 116.448C298.199 117.856 296.759 118.96 294.999 119.76C293.271 120.56 291.271 120.96 288.999 120.96ZM310.459 120L302.875 93.504H311.803L318.859 120H310.459ZM313.243 120V112.704H321.739V120H313.243ZM316.315 120L322.315 93.504H330.667L324.139 120H316.315ZM345.533 120.96C343.293 120.96 341.309 120.576 339.581 119.808C337.853 119.04 336.397 118 335.213 116.688C334.029 115.376 333.117 113.904 332.477 112.272C331.869 110.64 331.565 108.96 331.565 107.232V106.272C331.565 104.48 331.869 102.768 332.477 101.136C333.117 99.472 334.013 98 335.165 96.72C336.349 95.44 337.789 94.432 339.485 93.696C341.181 92.928 343.101 92.544 345.245 92.544C348.093 92.544 350.509 93.184 352.493 94.464C354.477 95.744 355.997 97.44 357.053 99.552C358.109 101.632 358.637 103.904 358.637 106.368V109.152H335.213V104.448H353.597L350.573 106.56C350.573 105.056 350.365 103.792 349.949 102.768C349.565 101.712 348.973 100.912 348.173 100.368C347.405 99.824 346.429 99.552 345.245 99.552C344.093 99.552 343.085 99.824 342.221 100.368C341.389 100.88 340.749 101.68 340.301 102.768C339.853 103.824 339.629 105.168 339.629 106.8C339.629 108.272 339.837 109.552 340.253 110.64C340.669 111.696 341.309 112.512 342.173 113.088C343.037 113.664 344.157 113.952 345.533 113.952C346.749 113.952 347.741 113.744 348.509 113.328C349.309 112.912 349.869 112.352 350.189 111.648H358.157C357.773 113.44 357.005 115.04 355.853 116.448C354.733 117.856 353.293 118.96 351.533 119.76C349.805 120.56 347.805 120.96 345.533 120.96ZM362.665 120V84.96H371.401V120H362.665ZM359.689 91.296V84.96H371.401V91.296H359.689ZM390.084 120.96C387.748 120.96 385.668 120.608 383.844 119.904C382.02 119.2 380.468 118.224 379.188 116.976C377.94 115.728 376.98 114.288 376.308 112.656C375.668 111.024 375.348 109.28 375.348 107.424V106.272C375.348 104.352 375.684 102.56 376.356 100.896C377.06 99.232 378.052 97.776 379.332 96.528C380.612 95.28 382.164 94.304 383.988 93.6C385.812 92.896 387.844 92.544 390.084 92.544C392.356 92.544 394.388 92.896 396.18 93.6C398.004 94.304 399.556 95.28 400.836 96.528C402.116 97.776 403.092 99.232 403.764 100.896C404.468 102.56 404.82 104.352 404.82 106.272V107.424C404.82 109.28 404.484 111.024 403.812 112.656C403.172 114.288 402.212 115.728 400.932 116.976C399.684 118.224 398.148 119.2 396.324 119.904C394.5 120.608 392.42 120.96 390.084 120.96ZM390.084 113.664C391.428 113.664 392.532 113.376 393.396 112.8C394.292 112.224 394.964 111.424 395.412 110.4C395.86 109.344 396.084 108.16 396.084 106.848C396.084 105.472 395.844 104.272 395.364 103.248C394.916 102.192 394.244 101.36 393.348 100.752C392.452 100.144 391.364 99.84 390.084 99.84C388.804 99.84 387.716 100.144 386.82 100.752C385.924 101.36 385.236 102.192 384.756 103.248C384.308 104.272 384.084 105.472 384.084 106.848C384.084 108.16 384.308 109.344 384.756 110.4C385.204 111.424 385.876 112.224 386.772 112.8C387.668 113.376 388.772 113.664 390.084 113.664ZM408.642 129.6V93.504H415.554V104.928H414.786C414.882 102.336 415.394 100.128 416.322 98.304C417.282 96.48 418.578 95.104 420.21 94.176C421.842 93.216 423.714 92.736 425.826 92.736C427.65 92.736 429.298 93.072 430.77 93.744C432.242 94.384 433.506 95.312 434.562 96.528C435.618 97.712 436.418 99.12 436.962 100.752C437.538 102.384 437.826 104.176 437.826 106.128V107.28C437.826 109.232 437.57 111.04 437.058 112.704C436.546 114.336 435.778 115.776 434.754 117.024C433.73 118.24 432.466 119.184 430.962 119.856C429.49 120.528 427.794 120.864 425.874 120.864C423.826 120.864 422.018 120.464 420.45 119.664C418.882 118.832 417.634 117.6 416.706 115.968C415.81 114.304 415.33 112.224 415.266 109.728L417.378 112.32V129.6H408.642ZM423.234 113.664C424.386 113.664 425.394 113.376 426.258 112.8C427.154 112.192 427.842 111.36 428.322 110.304C428.834 109.248 429.09 108.048 429.09 106.704C429.09 105.328 428.834 104.144 428.322 103.152C427.842 102.128 427.17 101.344 426.306 100.8C425.442 100.224 424.418 99.936 423.234 99.936C422.178 99.936 421.186 100.176 420.258 100.656C419.362 101.136 418.626 101.84 418.05 102.768C417.474 103.696 417.186 104.816 417.186 106.128V107.76C417.186 109.008 417.49 110.08 418.098 110.976C418.706 111.84 419.474 112.512 420.402 112.992C421.33 113.44 422.274 113.664 423.234 113.664ZM454.099 120.96C451.859 120.96 449.875 120.576 448.147 119.808C446.419 119.04 444.963 118 443.779 116.688C442.595 115.376 441.683 113.904 441.043 112.272C440.435 110.64 440.131 108.96 440.131 107.232V106.272C440.131 104.48 440.435 102.768 441.043 101.136C441.683 99.472 442.579 98 443.731 96.72C444.915 95.44 446.355 94.432 448.051 93.696C449.747 92.928 451.667 92.544 453.811 92.544C456.659 92.544 459.075 93.184 461.059 94.464C463.043 95.744 464.563 97.44 465.619 99.552C466.675 101.632 467.203 103.904 467.203 106.368V109.152H443.779V104.448H462.163L459.139 106.56C459.139 105.056 458.931 103.792 458.515 102.768C458.131 101.712 457.539 100.912 456.739 100.368C455.971 99.824 454.995 99.552 453.811 99.552C452.659 99.552 451.651 99.824 450.787 100.368C449.955 100.88 449.315 101.68 448.867 102.768C448.419 103.824 448.195 105.168 448.195 106.8C448.195 108.272 448.403 109.552 448.819 110.64C449.235 111.696 449.875 112.512 450.739 113.088C451.603 113.664 452.723 113.952 454.099 113.952C455.315 113.952 456.307 113.744 457.075 113.328C457.875 112.912 458.435 112.352 458.755 111.648H466.723C466.339 113.44 465.571 115.04 464.419 116.448C463.299 117.856 461.859 118.96 460.099 119.76C458.371 120.56 456.371 120.96 454.099 120.96ZM470.847 120V93.504H477.759V105.024H477.663C477.663 101.312 478.431 98.4 479.967 96.288C481.535 94.176 483.775 93.12 486.687 93.12H487.743V100.608H485.727C483.775 100.608 482.255 101.136 481.167 102.192C480.111 103.248 479.583 104.768 479.583 106.752V120H470.847Z"/>
</mask>
<path d="M248.52 120.192H245.52V123.192H248.52V120.192ZM248.52 111.84V108.84H245.52V111.84H248.52ZM258.312 111.216L259.306 114.046L259.328 114.039L259.349 114.031L258.312 111.216ZM261.384 109.344L263.463 111.506L263.485 111.486L263.505 111.465L261.384 109.344ZM263.304 106.368L266.1 107.455L266.105 107.443L266.11 107.43L263.304 106.368ZM263.304 98.352L260.498 99.4137L260.503 99.4265L260.508 99.4393L263.304 98.352ZM261.384 95.424L259.305 97.5865L259.327 97.6077L259.349 97.6284L261.384 95.424ZM258.312 93.648L257.318 96.4784L257.363 96.4943L257.409 96.5087L258.312 93.648ZM248.52 93.024H245.52V96.024H248.52V93.024ZM248.52 84.672V81.672H245.52V84.672H248.52ZM262.2 86.016L261.138 88.8219L261.151 88.8265L262.2 86.016ZM268.2 89.76L266.079 91.8813L266.089 91.892L266.1 91.9026L268.2 89.76ZM271.8 95.232L269 96.3089L269 96.3089L271.8 95.232ZM271.8 109.248L274.594 110.34L274.597 110.332L274.6 110.325L271.8 109.248ZM268.2 114.816L270.342 116.916L270.352 116.906L270.362 116.895L268.2 114.816ZM262.2 118.752L263.327 121.532L263.337 121.528L263.346 121.525L262.2 118.752ZM240.552 120.192H237.552V123.192H240.552V120.192ZM240.552 84.672V81.672H237.552V84.672H240.552ZM249.48 84.672H252.48V81.672H249.48V84.672ZM249.48 120.192V123.192H252.48V120.192H249.48ZM248.52 120.192H251.52V111.84H248.52H245.52V120.192H248.52ZM248.52 111.84V114.84H254.28V111.84V108.84H248.52V111.84ZM254.28 111.84V114.84C256.057 114.84 257.747 114.594 259.306 114.046L258.312 111.216L257.318 108.386C256.509 108.67 255.511 108.84 254.28 108.84V111.84ZM258.312 111.216L259.349 114.031C260.906 113.457 262.298 112.627 263.463 111.506L261.384 109.344L259.305 107.182C258.806 107.661 258.15 108.079 257.275 108.401L258.312 111.216ZM261.384 109.344L263.505 111.465C264.646 110.324 265.509 108.975 266.1 107.455L263.304 106.368L260.508 105.281C260.203 106.065 259.786 106.7 259.263 107.223L261.384 109.344ZM263.304 106.368L266.11 107.43C266.705 105.856 266.976 104.161 266.976 102.384H263.976H260.976C260.976 103.551 260.799 104.512 260.498 105.306L263.304 106.368ZM263.976 102.384H266.976C266.976 100.563 266.711 98.8361 266.1 97.2647L263.304 98.352L260.508 99.4393C260.793 100.172 260.976 101.133 260.976 102.384H263.976ZM263.304 98.352L266.11 97.2903C265.517 95.7227 264.632 94.3391 263.419 93.2196L261.384 95.424L259.349 97.6284C259.8 98.0449 260.195 98.6133 260.498 99.4137L263.304 98.352ZM261.384 95.424L263.463 93.2615C262.265 92.109 260.825 91.2956 259.215 90.7873L258.312 93.648L257.409 96.5087C258.231 96.7684 258.839 97.139 259.305 97.5865L261.384 95.424ZM258.312 93.648L259.306 90.8176C257.747 90.2696 256.057 90.024 254.28 90.024V93.024V96.024C255.511 96.024 256.509 96.1944 257.318 96.4784L258.312 93.648ZM254.28 93.024V90.024H248.52V93.024V96.024H254.28V93.024ZM248.52 93.024H251.52V84.672H248.52H245.52V93.024H248.52ZM248.52 84.672V87.672H253.896V84.672V81.672H248.52V84.672ZM253.896 84.672V87.672C256.789 87.672 259.183 88.0819 261.138 88.8219L262.2 86.016L263.262 83.2101C260.481 82.1581 257.339 81.672 253.896 81.672V84.672ZM262.2 86.016L261.151 88.8265C263.201 89.5921 264.82 90.623 266.079 91.8813L268.2 89.76L270.321 87.6387C268.38 85.697 265.999 84.2319 263.249 83.2055L262.2 86.016ZM268.2 89.76L266.1 91.9026C267.395 93.1713 268.355 94.6324 269 96.3089L271.8 95.232L274.6 94.1551C273.645 91.6716 272.205 89.4847 270.3 87.6174L268.2 89.76ZM271.8 95.232L269 96.3089C269.661 98.0289 270 99.8702 270 101.856H273H276C276 99.1698 275.539 96.5951 274.6 94.1551L271.8 95.232ZM273 101.856H270V102.912H273H276V101.856H273ZM273 102.912H270C270 104.673 269.673 106.421 269 108.171L271.8 109.248L274.6 110.325C275.527 107.915 276 105.439 276 102.912H273ZM271.8 109.248L269.006 108.156C268.356 109.819 267.378 111.343 266.038 112.737L268.2 114.816L270.362 116.895C272.222 114.961 273.644 112.773 274.594 110.34L271.8 109.248ZM268.2 114.816L266.058 112.716C264.777 114.022 263.131 115.121 261.054 115.979L262.2 118.752L263.346 121.525C266.069 120.399 268.423 118.874 270.342 116.916L268.2 114.816ZM262.2 118.752L261.073 115.972C259.138 116.756 256.767 117.192 253.896 117.192V120.192V123.192C257.361 123.192 260.526 122.668 263.327 121.532L262.2 118.752ZM253.896 120.192V117.192H248.52V120.192V123.192H253.896V120.192ZM240.552 120.192H243.552V84.672H240.552H237.552V120.192H240.552ZM240.552 84.672V87.672H249.48V84.672V81.672H240.552V84.672ZM249.48 84.672H246.48V120.192H249.48H252.48V84.672H249.48ZM249.48 120.192V117.192H240.552V120.192V123.192H249.48V120.192ZM283.047 119.808L281.829 122.549L283.047 119.808ZM278.679 116.688L280.907 114.678V114.678L278.679 116.688ZM275.943 112.272L273.132 113.319L273.141 113.343L273.15 113.367L275.943 112.272ZM275.943 101.136L273.143 100.059L273.138 100.074L273.132 100.089L275.943 101.136ZM278.631 96.72L276.429 94.6829L276.415 94.6979L276.401 94.7131L278.631 96.72ZM282.951 93.696L284.146 96.448L284.167 96.4386L284.189 96.4289L282.951 93.696ZM295.959 94.464L294.333 96.9849L295.959 94.464ZM300.519 99.552L297.836 100.894L297.84 100.902L297.844 100.91L300.519 99.552ZM302.103 109.152V112.152H305.103V109.152H302.103ZM278.679 109.152H275.679V112.152H278.679V109.152ZM278.679 104.448V101.448H275.679V104.448H278.679ZM297.063 104.448L298.781 106.908L306.598 101.448H297.063V104.448ZM294.039 106.56H291.039V112.314L295.757 109.02L294.039 106.56ZM293.415 102.768L290.596 103.793L290.615 103.846L290.636 103.897L293.415 102.768ZM291.639 100.368L289.905 102.816L289.929 102.833L289.952 102.849L291.639 100.368ZM285.687 100.368L287.26 102.923L287.273 102.915L287.286 102.907L285.687 100.368ZM283.767 102.768L286.529 103.94L286.535 103.925L286.541 103.91L283.767 102.768ZM283.719 110.64L280.917 111.711L280.923 111.726L280.928 111.74L283.719 110.64ZM285.639 113.088L287.303 110.592V110.592L285.639 113.088ZM291.975 113.328L290.591 110.666L290.569 110.678L290.547 110.69L291.975 113.328ZM293.655 111.648V108.648H291.724L290.924 110.407L293.655 111.648ZM301.623 111.648L304.557 112.277L305.334 108.648H301.623V111.648ZM299.319 116.448L296.998 114.548L296.984 114.564L296.972 114.58L299.319 116.448ZM294.999 119.76L293.758 117.029L293.748 117.033L293.739 117.038L294.999 119.76ZM288.999 120.96V117.96C287.103 117.96 285.546 117.636 284.266 117.067L283.047 119.808L281.829 122.549C284.005 123.516 286.416 123.96 288.999 123.96V120.96ZM283.047 119.808L284.266 117.067C282.894 116.457 281.79 115.657 280.907 114.678L278.679 116.688L276.452 118.698C277.937 120.343 279.744 121.623 281.829 122.549L283.047 119.808ZM278.679 116.688L280.907 114.678C279.963 113.632 279.243 112.469 278.736 111.177L275.943 112.272L273.15 113.367C273.923 115.339 275.028 117.12 276.452 118.698L278.679 116.688ZM275.943 112.272L278.755 111.225C278.27 109.925 278.031 108.6 278.031 107.232H275.031H272.031C272.031 109.32 272.4 111.355 273.132 113.319L275.943 112.272ZM275.031 107.232H278.031V106.272H275.031H272.031V107.232H275.031ZM275.031 106.272H278.031C278.031 104.827 278.275 103.471 278.755 102.183L275.943 101.136L273.132 100.089C272.396 102.065 272.031 104.133 272.031 106.272H275.031ZM275.943 101.136L278.743 102.213C279.257 100.879 279.963 99.7247 280.861 98.7269L278.631 96.72L276.401 94.7131C274.996 96.2753 273.91 98.0651 273.143 100.059L275.943 101.136ZM278.631 96.72L280.834 98.7571C281.718 97.801 282.808 97.0284 284.146 96.448L282.951 93.696L281.757 90.944C279.703 91.8356 277.913 93.079 276.429 94.6829L278.631 96.72ZM282.951 93.696L284.189 96.4289C285.441 95.8617 286.93 95.544 288.711 95.544V92.544V89.544C286.205 89.544 283.853 89.9943 281.714 90.9631L282.951 93.696ZM288.711 92.544V95.544C291.103 95.544 292.926 96.077 294.333 96.9849L295.959 94.464L297.586 91.9431C295.025 90.291 292.016 89.544 288.711 89.544V92.544ZM295.959 94.464L294.333 96.9849C295.865 97.9735 297.02 99.2622 297.836 100.894L300.519 99.552L303.203 98.2104C301.906 95.6178 300.021 93.5145 297.586 91.9431L295.959 94.464ZM300.519 99.552L297.844 100.91C298.675 102.546 299.103 104.349 299.103 106.368H302.103H305.103C305.103 103.459 304.476 100.718 303.194 98.1939L300.519 99.552ZM302.103 106.368H299.103V109.152H302.103H305.103V106.368H302.103ZM302.103 109.152V106.152H278.679V109.152V112.152H302.103V109.152ZM278.679 109.152H281.679V104.448H278.679H275.679V109.152H278.679ZM278.679 104.448V107.448H297.063V104.448V101.448H278.679V104.448ZM297.063 104.448L295.346 101.988L292.322 104.1L294.039 106.56L295.757 109.02L298.781 106.908L297.063 104.448ZM294.039 106.56H297.039C297.039 104.8 296.799 103.126 296.195 101.639L293.415 102.768L290.636 103.897C290.864 104.458 291.039 105.312 291.039 106.56H294.039ZM293.415 102.768L296.235 101.743C295.671 100.194 294.728 98.8404 293.326 97.8872L291.639 100.368L289.952 102.849C290.151 102.984 290.391 103.23 290.596 103.793L293.415 102.768ZM291.639 100.368L293.373 97.9199C291.981 96.9337 290.355 96.552 288.711 96.552V99.552V102.552C289.435 102.552 289.762 102.714 289.905 102.816L291.639 100.368ZM288.711 99.552V96.552C287.068 96.552 285.491 96.9465 284.089 97.8293L285.687 100.368L287.286 102.907C287.612 102.702 288.05 102.552 288.711 102.552V99.552ZM285.687 100.368L284.115 97.813C282.64 98.7205 281.632 100.074 280.993 101.626L283.767 102.768L286.541 103.91C286.799 103.286 287.07 103.039 287.26 102.923L285.687 100.368ZM283.767 102.768L281.006 101.596C280.349 103.145 280.095 104.923 280.095 106.8H283.095H286.095C286.095 105.413 286.29 104.503 286.529 103.94L283.767 102.768ZM283.095 106.8H280.095C280.095 108.546 280.341 110.204 280.917 111.711L283.719 110.64L286.522 109.569C286.266 108.9 286.095 107.998 286.095 106.8H283.095ZM283.719 110.64L280.928 111.74C281.547 113.31 282.554 114.637 283.975 115.584L285.639 113.088L287.303 110.592C286.996 110.387 286.724 110.082 286.511 109.54L283.719 110.64ZM285.639 113.088L283.975 115.584C285.469 116.58 287.22 116.952 288.999 116.952V113.952V110.952C288.027 110.952 287.538 110.748 287.303 110.592L285.639 113.088ZM288.999 113.952V116.952C290.529 116.952 292.059 116.694 293.404 115.966L291.975 113.328L290.547 110.69C290.356 110.794 289.902 110.952 288.999 110.952V113.952ZM291.975 113.328L293.359 115.99C294.652 115.318 295.744 114.302 296.386 112.889L293.655 111.648L290.924 110.407C290.917 110.423 290.906 110.443 290.874 110.475C290.838 110.51 290.756 110.58 290.591 110.666L291.975 113.328ZM293.655 111.648V114.648H301.623V111.648V108.648H293.655V111.648ZM301.623 111.648L298.69 111.019C298.405 112.349 297.845 113.512 296.998 114.548L299.319 116.448L301.641 118.348C303.098 116.568 304.074 114.531 304.557 112.277L301.623 111.648ZM299.319 116.448L296.972 114.58C296.169 115.59 295.119 116.41 293.758 117.029L294.999 119.76L296.241 122.491C298.4 121.51 300.23 120.122 301.667 118.316L299.319 116.448ZM294.999 119.76L293.739 117.038C292.475 117.623 290.919 117.96 288.999 117.96V120.96V123.96C291.624 123.96 294.068 123.497 296.26 122.482L294.999 119.76ZM310.459 120L307.575 120.826L308.197 123H310.459V120ZM302.875 93.504V90.504H298.896L299.991 94.3295L302.875 93.504ZM311.803 93.504L314.702 92.732L314.108 90.504H311.803V93.504ZM318.859 120V123H322.762L321.758 119.228L318.859 120ZM313.243 120H310.243V123H313.243V120ZM313.243 112.704V109.704H310.243V112.704H313.243ZM321.739 112.704H324.739V109.704H321.739V112.704ZM321.739 120V123H324.739V120H321.739ZM316.315 120L313.389 119.337L312.559 123H316.315V120ZM322.315 93.504V90.504H319.918L319.389 92.8414L322.315 93.504ZM330.667 93.504L333.58 94.2217L334.496 90.504H330.667V93.504ZM324.139 120V123H326.489L327.052 120.718L324.139 120ZM310.459 120L313.343 119.174L305.759 92.6785L302.875 93.504L299.991 94.3295L307.575 120.826L310.459 120ZM302.875 93.504V96.504H311.803V93.504V90.504H302.875V93.504ZM311.803 93.504L308.904 94.276L315.96 120.772L318.859 120L321.758 119.228L314.702 92.732L311.803 93.504ZM318.859 120V117H310.459V120V123H318.859V120ZM313.243 120H316.243V112.704H313.243H310.243V120H313.243ZM313.243 112.704V115.704H321.739V112.704V109.704H313.243V112.704ZM321.739 112.704H318.739V120H321.739H324.739V112.704H321.739ZM321.739 120V117H313.243V120V123H321.739V120ZM316.315 120L319.241 120.663L325.241 94.1666L322.315 93.504L319.389 92.8414L313.389 119.337L316.315 120ZM322.315 93.504V96.504H330.667V93.504V90.504H322.315V93.504ZM330.667 93.504L327.754 92.7863L321.226 119.282L324.139 120L327.052 120.718L333.58 94.2217L330.667 93.504ZM324.139 120V117H316.315V120V123H324.139V120ZM339.581 119.808L338.362 122.549L339.581 119.808ZM335.213 116.688L337.44 114.678V114.678L335.213 116.688ZM332.477 112.272L329.665 113.319L329.674 113.343L329.684 113.367L332.477 112.272ZM332.477 101.136L329.676 100.059L329.671 100.074L329.665 100.089L332.477 101.136ZM335.165 96.72L332.962 94.6829L332.948 94.6979L332.935 94.7131L335.165 96.72ZM339.485 93.696L340.679 96.448L340.7 96.4386L340.722 96.4289L339.485 93.696ZM352.493 94.464L350.866 96.9849H350.866L352.493 94.464ZM357.053 99.552L354.369 100.894L354.373 100.902L354.378 100.91L357.053 99.552ZM358.637 109.152V112.152H361.637V109.152H358.637ZM335.213 109.152H332.213V112.152H335.213V109.152ZM335.213 104.448V101.448H332.213V104.448H335.213ZM353.597 104.448L355.314 106.908L363.131 101.448H353.597V104.448ZM350.573 106.56H347.573V112.314L352.29 109.02L350.573 106.56ZM349.949 102.768L347.129 103.793L347.148 103.846L347.169 103.897L349.949 102.768ZM348.173 100.368L346.438 102.816L346.462 102.833L346.486 102.849L348.173 100.368ZM342.221 100.368L343.793 102.923L343.806 102.915L343.819 102.907L342.221 100.368ZM340.301 102.768L343.062 103.94L343.068 103.925L343.075 103.91L340.301 102.768ZM340.253 110.64L337.45 111.711L337.456 111.726L337.461 111.74L340.253 110.64ZM342.173 113.088L343.837 110.592L343.837 110.592L342.173 113.088ZM348.509 113.328L347.124 110.666L347.102 110.678L347.08 110.69L348.509 113.328ZM350.189 111.648V108.648H348.257L347.457 110.407L350.189 111.648ZM358.157 111.648L361.09 112.277L361.867 108.648H358.157V111.648ZM355.853 116.448L353.531 114.548L353.518 114.564L353.505 114.58L355.853 116.448ZM351.533 119.76L350.291 117.029L350.282 117.033L350.272 117.038L351.533 119.76ZM345.533 120.96V117.96C343.636 117.96 342.079 117.636 340.799 117.067L339.581 119.808L338.362 122.549C340.538 123.516 342.949 123.96 345.533 123.96V120.96ZM339.581 119.808L340.799 117.067C339.427 116.457 338.323 115.657 337.44 114.678L335.213 116.688L332.985 118.698C334.47 120.343 336.278 121.623 338.362 122.549L339.581 119.808ZM335.213 116.688L337.44 114.678C336.496 113.632 335.776 112.469 335.269 111.177L332.477 112.272L329.684 113.367C330.457 115.339 331.561 117.12 332.985 118.698L335.213 116.688ZM332.477 112.272L335.288 111.225C334.804 109.925 334.565 108.6 334.565 107.232H331.565H328.565C328.565 109.32 328.933 111.355 329.665 113.319L332.477 112.272ZM331.565 107.232H334.565V106.272H331.565H328.565V107.232H331.565ZM331.565 106.272H334.565C334.565 104.827 334.808 103.471 335.288 102.183L332.477 101.136L329.665 100.089C328.929 102.065 328.565 104.133 328.565 106.272H331.565ZM332.477 101.136L335.277 102.213C335.79 100.879 336.496 99.7247 337.394 98.7269L335.165 96.72L332.935 94.7131C331.529 96.2753 330.443 98.0651 329.676 100.059L332.477 101.136ZM335.165 96.72L337.367 98.7571C338.251 97.801 339.341 97.0284 340.679 96.448L339.485 93.696L338.29 90.944C336.236 91.8356 334.446 93.079 332.962 94.6829L335.165 96.72ZM339.485 93.696L340.722 96.4289C341.975 95.8617 343.463 95.544 345.245 95.544V92.544V89.544C342.738 89.544 340.386 89.9943 338.247 90.9631L339.485 93.696ZM345.245 92.544V95.544C347.636 95.544 349.459 96.077 350.866 96.9849L352.493 94.464L354.119 91.9431C351.558 90.291 348.549 89.544 345.245 89.544V92.544ZM352.493 94.464L350.866 96.9849C352.399 97.9735 353.554 99.2622 354.369 100.894L357.053 99.552L359.736 98.2104C358.439 95.6178 356.554 93.5145 354.119 91.9431L352.493 94.464ZM357.053 99.552L354.378 100.91C355.208 102.546 355.637 104.349 355.637 106.368H358.637H361.637C361.637 103.459 361.009 100.718 359.728 98.1939L357.053 99.552ZM358.637 106.368H355.637V109.152H358.637H361.637V106.368H358.637ZM358.637 109.152V106.152H335.213V109.152V112.152H358.637V109.152ZM335.213 109.152H338.213V104.448H335.213H332.213V109.152H335.213ZM335.213 104.448V107.448H353.597V104.448V101.448H335.213V104.448ZM353.597 104.448L351.879 101.988L348.855 104.1L350.573 106.56L352.29 109.02L355.314 106.908L353.597 104.448ZM350.573 106.56H353.573C353.573 104.8 353.332 103.126 352.728 101.639L349.949 102.768L347.169 103.897C347.397 104.458 347.573 105.312 347.573 106.56H350.573ZM349.949 102.768L352.768 101.743C352.205 100.194 351.261 98.8404 349.859 97.8872L348.173 100.368L346.486 102.849C346.684 102.984 346.924 103.23 347.129 103.793L349.949 102.768ZM348.173 100.368L349.907 97.9199C348.514 96.9337 346.888 96.552 345.245 96.552V99.552V102.552C345.969 102.552 346.295 102.714 346.438 102.816L348.173 100.368ZM345.245 99.552V96.552C343.601 96.552 342.024 96.9465 340.622 97.8293L342.221 100.368L343.819 102.907C344.145 102.702 344.584 102.552 345.245 102.552V99.552ZM342.221 100.368L340.648 97.813C339.174 98.7205 338.165 100.074 337.526 101.626L340.301 102.768L343.075 103.91C343.332 103.286 343.603 103.039 343.793 102.923L342.221 100.368ZM340.301 102.768L337.539 101.596C336.882 103.145 336.629 104.923 336.629 106.8H339.629H342.629C342.629 105.413 342.823 104.503 343.062 103.94L340.301 102.768ZM339.629 106.8H336.629C336.629 108.546 336.874 110.204 337.45 111.711L340.253 110.64L343.055 109.569C342.799 108.9 342.629 107.998 342.629 106.8H339.629ZM340.253 110.64L337.461 111.74C338.08 113.31 339.087 114.637 340.508 115.584L342.173 113.088L343.837 110.592C343.53 110.387 343.257 110.082 343.044 109.54L340.253 110.64ZM342.173 113.088L340.508 115.584C342.002 116.58 343.753 116.952 345.533 116.952V113.952V110.952C344.56 110.952 344.071 110.748 343.837 110.592L342.173 113.088ZM345.533 113.952V116.952C347.062 116.952 348.592 116.694 349.937 115.966L348.509 113.328L347.08 110.69C346.889 110.794 346.435 110.952 345.533 110.952V113.952ZM348.509 113.328L349.893 115.99C351.185 115.318 352.277 114.302 352.92 112.889L350.189 111.648L347.457 110.407C347.45 110.423 347.439 110.443 347.407 110.475C347.372 110.51 347.29 110.58 347.124 110.666L348.509 113.328ZM350.189 111.648V114.648H358.157V111.648V108.648H350.189V111.648ZM358.157 111.648L355.223 111.019C354.938 112.349 354.378 113.512 353.531 114.548L355.853 116.448L358.174 118.348C359.631 116.568 360.607 114.531 361.09 112.277L358.157 111.648ZM355.853 116.448L353.505 114.58C352.702 115.59 351.652 116.41 350.291 117.029L351.533 119.76L352.774 122.491C354.933 121.51 356.763 120.122 358.2 118.316L355.853 116.448ZM351.533 119.76L350.272 117.038C349.008 117.623 347.452 117.96 345.533 117.96V120.96V123.96C348.157 123.96 350.601 123.497 352.793 122.482L351.533 119.76ZM362.665 120H359.665V123H362.665V120ZM362.665 84.96V81.96H359.665V84.96H362.665ZM371.401 84.96H374.401V81.96H371.401V84.96ZM371.401 120V123H374.401V120H371.401ZM359.689 91.296H356.689V94.296H359.689V91.296ZM359.689 84.96V81.96H356.689V84.96H359.689ZM371.401 84.96H374.401V81.96H371.401V84.96ZM371.401 91.296V94.296H374.401V91.296H371.401ZM362.665 120H365.665V84.96H362.665H359.665V120H362.665ZM362.665 84.96V87.96H371.401V84.96V81.96H362.665V84.96ZM371.401 84.96H368.401V120H371.401H374.401V84.96H371.401ZM371.401 120V117H362.665V120V123H371.401V120ZM359.689 91.296H362.689V84.96H359.689H356.689V91.296H359.689ZM359.689 84.96V87.96H371.401V84.96V81.96H359.689V84.96ZM371.401 84.96H368.401V91.296H371.401H374.401V84.96H371.401ZM371.401 91.296V88.296H359.689V91.296V94.296H371.401V91.296ZM383.844 119.904L384.924 117.105L383.844 119.904ZM379.188 116.976L377.066 119.097L377.08 119.111L377.093 119.124L379.188 116.976ZM376.308 112.656L373.515 113.751L373.524 113.775L373.534 113.798L376.308 112.656ZM376.356 100.896L373.593 99.7271L373.583 99.7498L373.574 99.7726L376.356 100.896ZM379.332 96.528L377.237 94.38V94.38L379.332 96.528ZM396.18 93.6L395.083 96.3923L395.091 96.3955L395.099 96.3988L396.18 93.6ZM400.836 96.528L398.741 98.676V98.676L400.836 96.528ZM403.764 100.896L400.982 102.019L400.991 102.042L401.001 102.065L403.764 100.896ZM403.812 112.656L401.038 111.514L401.028 111.537L401.019 111.561L403.812 112.656ZM400.932 116.976L398.837 114.828L398.824 114.841L398.81 114.855L400.932 116.976ZM396.324 119.904L395.243 117.105L396.324 119.904ZM393.396 112.8L391.773 110.276L391.752 110.29L391.732 110.304L393.396 112.8ZM395.412 110.4L398.16 111.602L398.167 111.587L398.173 111.572L395.412 110.4ZM395.364 103.248L392.602 104.42L392.624 104.471L392.647 104.521L395.364 103.248ZM386.82 100.752L385.135 98.2696L386.82 100.752ZM384.756 103.248L382.025 102.007L382.016 102.026L382.007 102.046L384.756 103.248ZM384.756 110.4L381.994 111.572L382 111.587L382.007 111.602L384.756 110.4ZM390.084 120.96V117.96C388.047 117.96 386.343 117.653 384.924 117.105L383.844 119.904L382.763 122.703C384.992 123.563 387.448 123.96 390.084 123.96V120.96ZM383.844 119.904L384.924 117.105C383.443 116.534 382.245 115.767 381.282 114.828L379.188 116.976L377.093 119.124C378.69 120.681 380.597 121.866 382.763 122.703L383.844 119.904ZM379.188 116.976L381.309 114.855C380.341 113.887 379.603 112.78 379.082 111.514L376.308 112.656L373.534 113.798C374.356 115.796 375.538 117.569 377.066 119.097L379.188 116.976ZM376.308 112.656L379.101 111.561C378.605 110.298 378.348 108.927 378.348 107.424H375.348H372.348C372.348 109.633 372.73 111.75 373.515 113.751L376.308 112.656ZM375.348 107.424H378.348V106.272H375.348H372.348V107.424H375.348ZM375.348 106.272H378.348C378.348 104.71 378.619 103.302 379.137 102.019L376.356 100.896L373.574 99.7726C372.748 101.818 372.348 103.994 372.348 106.272H375.348ZM376.356 100.896L379.119 102.065C379.669 100.764 380.435 99.6423 381.426 98.676L379.332 96.528L377.237 94.38C375.668 95.9097 374.451 97.6995 373.593 99.7271L376.356 100.896ZM379.332 96.528L381.426 98.676C382.389 97.7368 383.587 96.9704 385.068 96.3988L383.988 93.6L382.907 90.8012C380.741 91.6376 378.834 92.8232 377.237 94.38L379.332 96.528ZM383.988 93.6L385.068 96.3988C386.501 95.8457 388.16 95.544 390.084 95.544V92.544V89.544C387.527 89.544 385.122 89.9463 382.907 90.8012L383.988 93.6ZM390.084 92.544V95.544C392.046 95.544 393.697 95.8479 395.083 96.3923L396.18 93.6L397.277 90.8077C395.078 89.9441 392.665 89.544 390.084 89.544V92.544ZM396.18 93.6L395.099 96.3988C396.581 96.9704 397.778 97.7368 398.741 98.676L400.836 96.528L402.93 94.38C401.333 92.8232 399.427 91.6376 397.26 90.8012L396.18 93.6ZM400.836 96.528L398.741 98.676C399.722 99.6326 400.465 100.739 400.982 102.019L403.764 100.896L406.545 99.7726C405.718 97.7247 404.509 95.9194 402.93 94.38L400.836 96.528ZM403.764 100.896L401.001 102.065C401.539 103.336 401.82 104.728 401.82 106.272H404.82H407.82C407.82 103.976 407.397 101.784 406.527 99.7271L403.764 100.896ZM404.82 106.272H401.82V107.424H404.82H407.82V106.272H404.82ZM404.82 107.424H401.82C401.82 108.909 401.553 110.263 401.038 111.514L403.812 112.656L406.586 113.798C407.414 111.785 407.82 109.651 407.82 107.424H404.82ZM403.812 112.656L401.019 111.561C400.537 112.788 399.819 113.871 398.837 114.828L400.932 116.976L403.026 119.124C404.605 117.585 405.806 115.788 406.605 113.751L403.812 112.656ZM400.932 116.976L398.81 114.855C397.889 115.776 396.719 116.536 395.243 117.105L396.324 119.904L397.404 122.703C399.576 121.864 401.479 120.672 403.053 119.097L400.932 116.976ZM396.324 119.904L395.243 117.105C393.824 117.653 392.12 117.96 390.084 117.96V120.96V123.96C392.719 123.96 395.175 123.563 397.404 122.703L396.324 119.904ZM390.084 113.664V116.664C391.847 116.664 393.577 116.285 395.06 115.296L393.396 112.8L391.732 110.304C391.487 110.467 391.008 110.664 390.084 110.664V113.664ZM393.396 112.8L395.018 115.324C396.437 114.412 397.487 113.14 398.16 111.602L395.412 110.4L392.663 109.198C392.44 109.708 392.147 110.036 391.773 110.276L393.396 112.8ZM395.412 110.4L398.173 111.572C398.8 110.096 399.084 108.505 399.084 106.848H396.084H393.084C393.084 107.815 392.92 108.592 392.65 109.228L395.412 110.4ZM396.084 106.848H399.084C399.084 105.125 398.783 103.474 398.08 101.975L395.364 103.248L392.647 104.521C392.904 105.07 393.084 105.819 393.084 106.848H396.084ZM395.364 103.248L398.125 102.076C397.466 100.522 396.435 99.2214 395.032 98.2696L393.348 100.752L391.663 103.234C392.052 103.499 392.365 103.862 392.602 104.42L395.364 103.248ZM393.348 100.752L395.032 98.2696C393.554 97.2666 391.853 96.84 390.084 96.84V99.84V102.84C390.875 102.84 391.349 103.021 391.663 103.234L393.348 100.752ZM390.084 99.84V96.84C388.315 96.84 386.613 97.2666 385.135 98.2696L386.82 100.752L388.504 103.234C388.818 103.021 389.293 102.84 390.084 102.84V99.84ZM386.82 100.752L385.135 98.2696C383.75 99.2094 382.716 100.486 382.025 102.007L384.756 103.248L387.487 104.489C387.755 103.898 388.097 103.511 388.504 103.234L386.82 100.752ZM384.756 103.248L382.007 102.046C381.36 103.526 381.084 105.151 381.084 106.848H384.084H387.084C387.084 105.793 387.256 105.018 387.504 104.45L384.756 103.248ZM384.084 106.848H381.084C381.084 108.505 381.368 110.096 381.994 111.572L384.756 110.4L387.517 109.228C387.248 108.592 387.084 107.815 387.084 106.848H384.084ZM384.756 110.4L382.007 111.602C382.68 113.14 383.731 114.412 385.149 115.324L386.772 112.8L388.394 110.276C388.021 110.036 387.727 109.708 387.504 109.198L384.756 110.4ZM386.772 112.8L385.149 115.324C386.631 116.276 388.33 116.664 390.084 116.664V113.664V110.664C389.213 110.664 388.705 110.476 388.394 110.276L386.772 112.8ZM408.642 129.6H405.642V132.6H408.642V129.6ZM408.642 93.504V90.504H405.642V93.504H408.642ZM415.554 93.504H418.554V90.504H415.554V93.504ZM415.554 104.928V107.928H418.554V104.928H415.554ZM414.786 104.928L411.788 104.817L411.673 107.928H414.786V104.928ZM416.322 98.304L413.668 96.9068L413.658 96.9251L413.649 96.9436L416.322 98.304ZM420.21 94.176L421.693 96.7839L421.712 96.773L421.731 96.7618L420.21 94.176ZM430.77 93.744L429.525 96.4731L429.549 96.4844L429.574 96.4952L430.77 93.744ZM434.562 96.528L432.297 98.4951L432.31 98.51L432.324 98.5248L434.562 96.528ZM436.962 100.752L434.116 101.701L434.125 101.726L434.133 101.75L436.962 100.752ZM437.058 112.704L439.921 113.602L439.923 113.594L439.926 113.586L437.058 112.704ZM434.754 117.024L437.049 118.956L437.061 118.942L437.074 118.927L434.754 117.024ZM430.962 119.856L429.739 117.117L429.728 117.122L429.717 117.127L430.962 119.856ZM420.45 119.664L419.044 122.314L419.066 122.325L419.087 122.336L420.45 119.664ZM416.706 115.968L414.065 117.39L414.081 117.421L414.099 117.451L416.706 115.968ZM415.266 109.728L417.592 107.833L412.042 101.022L412.267 109.805L415.266 109.728ZM417.378 112.32H420.378V111.253L419.704 110.425L417.378 112.32ZM417.378 129.6V132.6H420.378V129.6H417.378ZM426.258 112.8L427.922 115.296L427.933 115.289L427.943 115.282L426.258 112.8ZM428.322 110.304L425.623 108.995L425.607 109.029L425.591 109.063L428.322 110.304ZM428.322 103.152L425.606 104.425L425.63 104.477L425.657 104.528L428.322 103.152ZM426.306 100.8L424.642 103.296L424.675 103.318L424.708 103.339L426.306 100.8ZM420.258 100.656L418.88 97.9913L418.861 98.0013L418.842 98.0116L420.258 100.656ZM418.05 102.768L420.599 104.35L418.05 102.768ZM418.098 110.976L415.616 112.661L415.63 112.682L415.645 112.702L418.098 110.976ZM420.402 112.992L419.024 115.657L419.061 115.676L419.098 115.694L420.402 112.992ZM408.642 129.6H411.642V93.504H408.642H405.642V129.6H408.642ZM408.642 93.504V96.504H415.554V93.504V90.504H408.642V93.504ZM415.554 93.504H412.554V104.928H415.554H418.554V93.504H415.554ZM415.554 104.928V101.928H414.786V104.928V107.928H415.554V104.928ZM414.786 104.928L417.784 105.039C417.868 102.769 418.311 101.011 418.996 99.6644L416.322 98.304L413.649 96.9436C412.478 99.2448 411.896 101.903 411.788 104.817L414.786 104.928ZM416.322 98.304L418.977 99.7012C419.697 98.3329 420.608 97.4011 421.693 96.7839L420.21 94.176L418.727 91.5681C416.549 92.8069 414.867 94.6271 413.668 96.9068L416.322 98.304ZM420.21 94.176L421.731 96.7618C422.851 96.1034 424.186 95.736 425.826 95.736V92.736V89.736C423.243 89.736 420.834 90.3286 418.689 91.5902L420.21 94.176ZM425.826 92.736V95.736C427.275 95.736 428.491 96.001 429.525 96.4731L430.77 93.744L432.016 91.0149C430.106 90.143 428.025 89.736 425.826 89.736V92.736ZM430.77 93.744L429.574 96.4952C430.634 96.9562 431.534 97.6157 432.297 98.4951L434.562 96.528L436.827 94.5609C435.479 93.0083 433.85 91.8118 431.967 90.9928L430.77 93.744ZM434.562 96.528L432.324 98.5248C433.086 99.3795 433.69 100.423 434.116 101.701L436.962 100.752L439.808 99.8033C439.146 97.8172 438.151 96.0445 436.801 94.5312L434.562 96.528ZM436.962 100.752L434.133 101.75C434.583 103.024 434.826 104.473 434.826 106.128H437.826H440.826C440.826 103.879 440.494 101.744 439.791 99.7535L436.962 100.752ZM437.826 106.128H434.826V107.28H437.826H440.826V106.128H437.826ZM437.826 107.28H434.826C434.826 108.969 434.605 110.476 434.191 111.822L437.058 112.704L439.926 113.586C440.536 111.604 440.826 109.495 440.826 107.28H437.826ZM437.058 112.704L434.196 111.806C433.792 113.093 433.201 114.188 432.435 115.121L434.754 117.024L437.074 118.927C438.356 117.364 439.301 115.579 439.921 113.602L437.058 112.704ZM434.754 117.024L432.46 115.092C431.738 115.949 430.845 116.623 429.739 117.117L430.962 119.856L432.186 122.595C434.088 121.745 435.723 120.531 437.049 118.956L434.754 117.024ZM430.962 119.856L429.717 117.127C428.702 117.59 427.444 117.864 425.874 117.864V120.864V123.864C428.145 123.864 430.279 123.466 432.208 122.585L430.962 119.856ZM425.874 120.864V117.864C424.223 117.864 422.896 117.544 421.814 116.992L420.45 119.664L419.087 122.336C421.141 123.384 423.43 123.864 425.874 123.864V120.864ZM420.45 119.664L421.857 117.014C420.821 116.465 419.978 115.652 419.314 114.485L416.706 115.968L414.099 117.451C415.291 119.548 416.943 121.199 419.044 122.314L420.45 119.664ZM416.706 115.968L419.348 114.546C418.735 113.407 418.321 111.822 418.265 109.651L415.266 109.728L412.267 109.805C412.34 112.626 412.886 115.201 414.065 117.39L416.706 115.968ZM415.266 109.728L412.941 111.623L415.053 114.215L417.378 112.32L419.704 110.425L417.592 107.833L415.266 109.728ZM417.378 112.32H414.378V129.6H417.378H420.378V112.32H417.378ZM417.378 129.6V126.6H408.642V129.6V132.6H417.378V129.6ZM423.234 113.664V116.664C424.911 116.664 426.512 116.236 427.922 115.296L426.258 112.8L424.594 110.304C424.276 110.516 423.861 110.664 423.234 110.664V113.664ZM426.258 112.8L427.943 115.282C429.328 114.343 430.362 113.066 431.053 111.545L428.322 110.304L425.591 109.063C425.323 109.654 424.981 110.041 424.574 110.318L426.258 112.8ZM428.322 110.304L431.022 111.613C431.759 110.093 432.09 108.435 432.09 106.704H429.09H426.09C426.09 107.661 425.91 108.403 425.623 108.995L428.322 110.304ZM429.09 106.704H432.09C432.09 104.959 431.765 103.281 430.988 101.776L428.322 103.152L425.657 104.528C425.904 105.007 426.09 105.697 426.09 106.704H429.09ZM428.322 103.152L431.039 101.879C430.342 100.393 429.306 99.1438 427.905 98.2613L426.306 100.8L424.708 103.339C425.034 103.544 425.343 103.863 425.606 104.425L428.322 103.152ZM426.306 100.8L427.97 98.3038C426.547 97.3548 424.925 96.936 423.234 96.936V99.936V102.936C423.912 102.936 424.338 103.093 424.642 103.296L426.306 100.8ZM423.234 99.936V96.936C421.704 96.936 420.239 97.2885 418.88 97.9913L420.258 100.656L421.637 103.321C422.134 103.063 422.653 102.936 423.234 102.936V99.936ZM420.258 100.656L418.842 98.0116C417.447 98.7587 416.334 99.845 415.501 101.186L418.05 102.768L420.599 104.35C420.919 103.835 421.278 103.513 421.675 103.3L420.258 100.656ZM418.05 102.768L415.501 101.186C414.576 102.677 414.186 104.37 414.186 106.128H417.186H420.186C420.186 105.262 420.373 104.715 420.599 104.35L418.05 102.768ZM417.186 106.128H414.186V107.76H417.186H420.186V106.128H417.186ZM417.186 107.76H414.186C414.186 109.514 414.621 111.195 415.616 112.661L418.098 110.976L420.581 109.291C420.359 108.965 420.186 108.502 420.186 107.76H417.186ZM418.098 110.976L415.645 112.702C416.527 113.957 417.663 114.952 419.024 115.657L420.402 112.992L421.781 110.327C421.286 110.072 420.885 109.723 420.552 109.25L418.098 110.976ZM420.402 112.992L419.098 115.694C420.402 116.323 421.79 116.664 423.234 116.664V113.664V110.664C422.759 110.664 422.258 110.557 421.707 110.29L420.402 112.992ZM448.147 119.808L446.928 122.549L448.147 119.808ZM443.779 116.688L446.006 114.678V114.678L443.779 116.688ZM441.043 112.272L438.232 113.319L438.24 113.343L438.25 113.367L441.043 112.272ZM441.043 101.136L438.243 100.059L438.237 100.074L438.232 100.089L441.043 101.136ZM443.731 96.72L441.528 94.6829L441.515 94.6979L441.501 94.7131L443.731 96.72ZM448.051 93.696L449.245 96.448L449.267 96.4386L449.288 96.4289L448.051 93.696ZM461.059 94.464L459.432 96.9849L461.059 94.464ZM465.619 99.552L462.935 100.894L462.94 100.902L462.944 100.91L465.619 99.552ZM467.203 109.152V112.152H470.203V109.152H467.203ZM443.779 109.152H440.779V112.152H443.779V109.152ZM443.779 104.448V101.448H440.779V104.448H443.779ZM462.163 104.448L463.881 106.908L471.698 101.448H462.163V104.448ZM459.139 106.56H456.139V112.314L460.857 109.02L459.139 106.56ZM458.515 102.768L455.695 103.793L455.714 103.846L455.735 103.897L458.515 102.768ZM456.739 100.368L455.005 102.816L455.028 102.833L455.052 102.849L456.739 100.368ZM450.787 100.368L452.359 102.923L452.372 102.915L452.385 102.907L450.787 100.368ZM448.867 102.768L451.628 103.94L451.635 103.925L451.641 103.91L448.867 102.768ZM448.819 110.64L446.017 111.711L446.022 111.726L446.028 111.74L448.819 110.64ZM450.739 113.088L452.403 110.592V110.592L450.739 113.088ZM457.075 113.328L455.691 110.666L455.668 110.678L455.646 110.69L457.075 113.328ZM458.755 111.648V108.648H456.823L456.024 110.407L458.755 111.648ZM466.723 111.648L469.656 112.277L470.434 108.648H466.723V111.648ZM464.419 116.448L462.097 114.548L462.084 114.564L462.071 114.58L464.419 116.448ZM460.099 119.76L458.857 117.029L458.848 117.033L458.838 117.038L460.099 119.76ZM454.099 120.96V117.96C452.202 117.96 450.645 117.636 449.365 117.067L448.147 119.808L446.928 122.549C449.104 123.516 451.515 123.96 454.099 123.96V120.96ZM448.147 119.808L449.365 117.067C447.994 116.457 446.889 115.657 446.006 114.678L443.779 116.688L441.552 118.698C443.036 120.343 444.844 121.623 446.928 122.549L448.147 119.808ZM443.779 116.688L446.006 114.678C445.062 113.632 444.343 112.469 443.836 111.177L441.043 112.272L438.25 113.367C439.023 115.339 440.127 117.12 441.552 118.698L443.779 116.688ZM441.043 112.272L443.854 111.225C443.37 109.925 443.131 108.6 443.131 107.232H440.131H437.131C437.131 109.32 437.5 111.355 438.232 113.319L441.043 112.272ZM440.131 107.232H443.131V106.272H440.131H437.131V107.232H440.131ZM440.131 106.272H443.131C443.131 104.827 443.374 103.471 443.854 102.183L441.043 101.136L438.232 100.089C437.495 102.065 437.131 104.133 437.131 106.272H440.131ZM441.043 101.136L443.843 102.213C444.356 100.879 445.063 99.7247 445.961 98.7269L443.731 96.72L441.501 94.7131C440.095 96.2753 439.01 98.0651 438.243 100.059L441.043 101.136ZM443.731 96.72L445.933 98.7571C446.817 97.801 447.908 97.0284 449.245 96.448L448.051 93.696L446.856 90.944C444.802 91.8356 443.012 93.079 441.528 94.6829L443.731 96.72ZM448.051 93.696L449.288 96.4289C450.541 95.8617 452.029 95.544 453.811 95.544V92.544V89.544C451.304 89.544 448.953 89.9943 446.813 90.9631L448.051 93.696ZM453.811 92.544V95.544C456.202 95.544 458.025 96.077 459.432 96.9849L461.059 94.464L462.685 91.9431C460.124 90.291 457.116 89.544 453.811 89.544V92.544ZM461.059 94.464L459.432 96.9849C460.965 97.9735 462.12 99.2622 462.935 100.894L465.619 99.552L468.302 98.2104C467.006 95.6178 465.121 93.5145 462.685 91.9431L461.059 94.464ZM465.619 99.552L462.944 100.91C463.774 102.546 464.203 104.349 464.203 106.368H467.203H470.203C470.203 103.459 469.575 100.718 468.294 98.1939L465.619 99.552ZM467.203 106.368H464.203V109.152H467.203H470.203V106.368H467.203ZM467.203 109.152V106.152H443.779V109.152V112.152H467.203V109.152ZM443.779 109.152H446.779V104.448H443.779H440.779V109.152H443.779ZM443.779 104.448V107.448H462.163V104.448V101.448H443.779V104.448ZM462.163 104.448L460.445 101.988L457.421 104.1L459.139 106.56L460.857 109.02L463.881 106.908L462.163 104.448ZM459.139 106.56H462.139C462.139 104.8 461.898 103.126 461.294 101.639L458.515 102.768L455.735 103.897C455.963 104.458 456.139 105.312 456.139 106.56H459.139ZM458.515 102.768L461.334 101.743C460.771 100.194 459.827 98.8404 458.426 97.8872L456.739 100.368L455.052 102.849C455.25 102.984 455.491 103.23 455.695 103.793L458.515 102.768ZM456.739 100.368L458.473 97.9199C457.08 96.9337 455.455 96.552 453.811 96.552V99.552V102.552C454.535 102.552 454.861 102.714 455.005 102.816L456.739 100.368ZM453.811 99.552V96.552C452.168 96.552 450.59 96.9465 449.188 97.8293L450.787 100.368L452.385 102.907C452.711 102.702 453.15 102.552 453.811 102.552V99.552ZM450.787 100.368L449.214 97.813C447.74 98.7205 446.732 100.074 446.093 101.626L448.867 102.768L451.641 103.91C451.898 103.286 452.17 103.039 452.359 102.923L450.787 100.368ZM448.867 102.768L446.105 101.596C445.448 103.145 445.195 104.923 445.195 106.8H448.195H451.195C451.195 105.413 451.389 104.503 451.628 103.94L448.867 102.768ZM448.195 106.8H445.195C445.195 108.546 445.44 110.204 446.017 111.711L448.819 110.64L451.621 109.569C451.365 108.9 451.195 107.998 451.195 106.8H448.195ZM448.819 110.64L446.028 111.74C446.646 113.31 447.654 114.637 449.075 115.584L450.739 113.088L452.403 110.592C452.096 110.387 451.823 110.082 451.61 109.54L448.819 110.64ZM450.739 113.088L449.075 115.584C450.568 116.58 452.32 116.952 454.099 116.952V113.952V110.952C453.126 110.952 452.637 110.748 452.403 110.592L450.739 113.088ZM454.099 113.952V116.952C455.628 116.952 457.159 116.694 458.504 115.966L457.075 113.328L455.646 110.69C455.455 110.794 455.001 110.952 454.099 110.952V113.952ZM457.075 113.328L458.459 115.99C459.751 115.318 460.844 114.302 461.486 112.889L458.755 111.648L456.024 110.407C456.016 110.423 456.005 110.443 455.973 110.475C455.938 110.51 455.856 110.58 455.691 110.666L457.075 113.328ZM458.755 111.648V114.648H466.723V111.648V108.648H458.755V111.648ZM466.723 111.648L463.789 111.019C463.504 112.349 462.945 113.512 462.097 114.548L464.419 116.448L466.741 118.348C468.197 116.568 469.173 114.531 469.656 112.277L466.723 111.648ZM464.419 116.448L462.071 114.58C461.268 115.59 460.218 116.41 458.857 117.029L460.099 119.76L461.34 122.491C463.499 121.51 465.329 120.122 466.767 118.316L464.419 116.448ZM460.099 119.76L458.838 117.038C457.574 117.623 456.018 117.96 454.099 117.96V120.96V123.96C456.723 123.96 459.167 123.497 461.359 122.482L460.099 119.76ZM470.847 120H467.847V123H470.847V120ZM470.847 93.504V90.504H467.847V93.504H470.847ZM477.759 93.504H480.759V90.504H477.759V93.504ZM477.759 105.024V108.024H480.759V105.024H477.759ZM477.663 105.024H474.663V108.024H477.663V105.024ZM479.967 96.288L477.559 94.4997L477.55 94.5115L477.541 94.5235L479.967 96.288ZM487.743 93.12H490.743V90.12H487.743V93.12ZM487.743 100.608V103.608H490.743V100.608H487.743ZM481.167 102.192L479.078 100.039L479.062 100.055L479.046 100.071L481.167 102.192ZM479.583 120V123H482.583V120H479.583ZM470.847 120H473.847V93.504H470.847H467.847V120H470.847ZM470.847 93.504V96.504H477.759V93.504V90.504H470.847V93.504ZM477.759 93.504H474.759V105.024H477.759H480.759V93.504H477.759ZM477.759 105.024V102.024H477.663V105.024V108.024H477.759V105.024ZM477.663 105.024H480.663C480.663 101.688 481.358 99.4763 482.394 98.0525L479.967 96.288L477.541 94.5235C475.505 97.3237 474.663 100.936 474.663 105.024H477.663ZM479.967 96.288L482.376 98.0763C483.312 96.8161 484.607 96.12 486.687 96.12V93.12V90.12C482.943 90.12 479.759 91.5359 477.559 94.4997L479.967 96.288ZM486.687 93.12V96.12H487.743V93.12V90.12H486.687V93.12ZM487.743 93.12H484.743V100.608H487.743H490.743V93.12H487.743ZM487.743 100.608V97.608H485.727V100.608V103.608H487.743V100.608ZM485.727 100.608V97.608C483.229 97.608 480.873 98.2965 479.078 100.039L481.167 102.192L483.257 104.345C483.637 103.975 484.322 103.608 485.727 103.608V100.608ZM481.167 102.192L479.046 100.071C477.261 101.855 476.583 104.243 476.583 106.752H479.583H482.583C482.583 105.293 482.961 104.641 483.289 104.313L481.167 102.192ZM479.583 106.752H476.583V120H479.583H482.583V106.752H479.583ZM479.583 120V117H470.847V120V123H479.583V120Z" fill="black" mask="url(#path-4-outside-1_181_1057)"/>
</svg>
