<svg width="20" height="20" viewBox="0 0 20 20" fill="none" xmlns="http://www.w3.org/2000/svg">
<path d="M19.5 1.43382V18.0662C19.5 18.4465 19.3489 18.8112 19.08 19.08C18.8112 19.3489 18.4465 19.5 18.0662 19.5H1.43382C1.05355 19.5 0.688851 19.3489 0.419957 19.08C0.151063 18.8112 0 18.4465 0 18.0662L0 1.43382C0 1.05355 0.151063 0.688851 0.419957 0.419957C0.688851 0.151063 1.05355 0 1.43382 0L18.0662 0C18.4465 0 18.8112 0.151063 19.08 0.419957C19.3489 0.688851 19.5 1.05355 19.5 1.43382V1.43382ZM5.73529 7.45588H2.86765V16.6324H5.73529V7.45588ZM5.99338 4.30147C5.99489 4.08456 5.95367 3.86947 5.87205 3.66849C5.79043 3.46751 5.67003 3.28457 5.51771 3.13013C5.3654 2.97568 5.18415 2.85275 4.98432 2.76835C4.7845 2.68395 4.57 2.63974 4.35309 2.63824H4.30147C3.86035 2.63824 3.4373 2.81347 3.12539 3.12539C2.81347 3.4373 2.63824 3.86035 2.63824 4.30147C2.63824 4.74259 2.81347 5.16564 3.12539 5.47756C3.4373 5.78947 3.86035 5.96471 4.30147 5.96471V5.96471C4.5184 5.97004 4.73425 5.93258 4.9367 5.85447C5.13915 5.77635 5.32422 5.65911 5.48134 5.50945C5.63846 5.35978 5.76456 5.18063 5.85241 4.98221C5.94027 4.7838 5.98817 4.57002 5.99338 4.35309V4.30147ZM16.6324 11.0576C16.6324 8.29897 14.8774 7.22647 13.1338 7.22647C12.563 7.19789 11.9946 7.31948 11.4854 7.57911C10.9762 7.83875 10.5439 8.22736 10.2318 8.70618H10.1515V7.45588H7.45588V16.6324H10.3235V11.7516C10.2821 11.2517 10.4395 10.7557 10.7617 10.3713C11.0839 9.98682 11.5447 9.74501 12.0441 9.69838H12.1531C13.065 9.69838 13.7418 10.2719 13.7418 11.7172V16.6324H16.6094L16.6324 11.0576Z" fill="black"/>
</svg>
